<svg width="25" height="25" viewBox="0 0 41 41" fill="none" xmlns="http://www.w3.org/2000/svg">
    <path d="M25.7531 32.3729L24.301 36.5156C24.1871 36.8288 23.9878 37.0851 23.7031 37.2844C23.4184 37.4837 23.1052 37.5834 22.7635 37.5834C22.1941 37.5834 21.7317 37.3482 21.3764 36.8778C21.021 36.4075 20.9567 35.8881 21.1833 35.3198L27.675 18.1511C27.8173 17.8379 28.0309 17.5816 28.3156 17.3823C28.6003 17.183 28.9135 17.0834 29.2552 17.0834H30.5364C30.8781 17.0834 31.1913 17.183 31.476 17.3823C31.7607 17.5816 31.9743 17.8379 32.1166 18.1511L38.6083 35.3625C38.8361 35.9035 38.7791 36.4092 38.4375 36.8795C38.0958 37.3499 37.6403 37.5845 37.0708 37.5834C36.7007 37.5834 36.3806 37.4837 36.1107 37.2844C35.8408 37.0851 35.6341 36.8146 35.4906 36.4729L34.0385 32.3729H25.7531ZM15.4604 23.874L8.02915 31.2625C7.71595 31.5757 7.32474 31.7397 6.85552 31.7545C6.3863 31.7693 5.98029 31.6053 5.63748 31.2625C5.32429 30.9493 5.16769 30.5507 5.16769 30.0667C5.16769 29.5827 5.32429 29.184 5.63748 28.8709L13.0687 21.4396C12.0722 20.4431 11.1679 19.3042 10.3559 18.0229C9.54387 16.7417 8.79676 15.2896 8.11456 13.6667H11.7021C12.2715 14.7771 12.841 15.7452 13.4104 16.5709C13.9798 17.3965 14.6632 18.2222 15.4604 19.0479C16.4 18.1084 17.3754 16.7912 18.3868 15.0966C19.3981 13.4019 20.1595 11.7864 20.6708 10.25H3.41665C2.93262 10.25 2.52717 10.086 2.20031 9.75802C1.87345 9.43002 1.70945 9.02458 1.70831 8.54169C1.70831 8.05766 1.87231 7.65222 2.20031 7.32535C2.52831 6.99849 2.93376 6.83449 3.41665 6.83335H13.6666V5.12502C13.6666 4.64099 13.8306 4.23555 14.1586 3.90869C14.4866 3.58183 14.8921 3.41783 15.375 3.41669C15.859 3.41669 16.265 3.58069 16.593 3.90869C16.921 4.23669 17.0845 4.64213 17.0833 5.12502V6.83335H27.3333C27.8173 6.83335 28.2234 6.99735 28.5514 7.32535C28.8794 7.65335 29.0428 8.0588 29.0416 8.54169C29.0416 9.02571 28.8776 9.43173 28.5496 9.75973C28.2216 10.0877 27.8162 10.2512 27.3333 10.25H24.0875C23.4896 12.3 22.5927 14.407 21.3969 16.5709C20.201 18.7347 19.0194 20.3861 17.8521 21.525L21.9521 25.7104L20.6708 29.2125L15.4604 23.874ZM26.8208 29.3834H32.9708L29.8958 20.6709L26.8208 29.3834Z" fill="#000000"/>
</svg>